<svg id="bd" xmlns="http://www.w3.org/2000/svg" viewBox="0 0 496.92 123.98"><defs><style>.cls-1{fill:#c2c5cc}</style></defs><path class="cls-1" d="M84.88 77.7a58.94 58.94 0 0 1-3.1 19.69 44.1 44.1 0 0 1-8.31 14.69 37.9 37.9 0 0 1-12.19 9.25 34.24 34.24 0 0 1-14.6 3.09 43.03 43.03 0 0 1-12.98-1.76 60.5 60.5 0 0 1-10.94-4.72l-.93 4.06H8.08V.44h14.69v43.44a61.52 61.52 0 0 1 13.12-8.33 36.54 36.54 0 0 1 15.63-3.24q15.46 0 24.41 11.88t8.94 33.51Zm-15.16.4q0-15.63-5.16-23.72T47.92 46.3a33.14 33.14 0 0 0-12.97 2.77 54.08 54.08 0 0 0-12.18 7.15v50a63.82 63.82 0 0 0 10.74 3.9 43.18 43.18 0 0 0 10.2 1.1q12.19 0 19.1-8t6.9-25.13ZM170.55 122h-14.7v-9.14a53.14 53.14 0 0 1-13.2 8.51 36.42 36.42 0 0 1-14.91 3.05q-15.63 0-24.8-12.03t-9.18-33.36a57.45 57.45 0 0 1 3.16-19.76 45.58 45.58 0 0 1 8.55-14.77 36.23 36.23 0 0 1 27.03-12.19 46.6 46.6 0 0 1 12.19 1.45 56.64 56.64 0 0 1 11.17 4.49V.44h14.69Zm-14.7-21.48V50.44a55.13 55.13 0 0 0-10.62-3.67A48.35 48.35 0 0 0 135 45.75q-12.35 0-19.22 8.6t-6.87 24.37q0 15.55 5.3 23.63t17.04 8.09a31.66 31.66 0 0 0 12.66-2.78 53.58 53.58 0 0 0 11.95-7.14Z" transform="translate(-8.08 -.44)" id="bd-2" data-name="bd"/><path class="cls-1" d="M184.92 73.56h96v48h-96z" id="Shape_1" data-name="Shape 1"/><path style="fill:#919499" d="M292.92 97.56h96v24h-96z" id="Shape_2" data-name="Shape 2"/><path style="fill:#ced1d9" d="M400.92 25.56h96v96h-96z" id="Shape_3" data-name="Shape 3"/></svg>